<svg xmlns="http://www.w3.org/2000/svg" viewBox="0 0 43 43" fill="none">
  <defs>
    <linearGradient id="cool" x1="-0.317" y1="0" x2="43.475" y2="0" gradientUnits="userSpaceOnUse">
      <stop stop-color="#F8B133"/>
      <stop offset="0.3708" stop-color="#BD1622"/>
      <stop offset="0.632" stop-color="#2D2E82"/>
      <stop offset="0.9877" stop-color="#35A8E0"/>
    </linearGradient>
  </defs>
  <g fill="url(#cool)">
    <path d="M42.7209 19.9297C42.7209 20.307 42.6581 20.7472 42.5953 21.1245L36.1239 20.7472C36.1239 20.4956 36.1239 20.1812 36.061 19.9297H42.7209Z"/>
    <path d="M42.0929 23.4514L41.716 24.5833L36.187 23.3257V22.4453L42.0929 23.4514Z"/>
    <path d="M40.7104 26.7213L40.1449 27.7274L35.8726 25.9038L36.061 25.0234L40.7104 26.7213Z"/>
    <path d="M38.9512 29.6138C38.7627 29.9283 38.5114 30.2427 38.3229 30.5571L34.9302 28.419C35.0558 28.1675 35.1815 27.916 35.37 27.6016L38.9512 29.6138Z"/>
    <path d="M37.0035 32.381C36.7522 32.6954 36.5637 33.0098 36.3124 33.2613L33.1709 30.4316C33.3594 30.2429 33.6107 29.9914 33.7992 29.8027L37.0035 32.381Z"/>
    <path d="M34.9304 35.0863L34.1764 35.9667L30.9722 31.9421L31.7889 31.502L34.9304 35.0863Z"/>
    <path d="M32.4802 37.6639L31.6006 38.4814L28.522 32.759L29.3388 32.5703L32.4802 37.6639Z"/>
    <path d="M29.5899 39.8008C29.2129 39.9894 28.8359 40.1781 28.5218 40.3667L26.1343 33.2609C26.3856 33.198 26.6369 33.1351 26.9511 33.0723L29.5899 39.8008Z"/>
    <path d="M26.1341 41.1218C25.7571 41.1847 25.3173 41.2476 24.9403 41.3105L23.7466 33.7644C23.9979 33.7016 24.2492 33.6387 24.5005 33.6387L26.1341 41.1218Z"/>
    <path d="M22.4901 41.4359C22.1132 41.4359 21.6734 41.373 21.2964 41.373L21.422 34.1414C21.6734 34.1414 21.9875 34.0785 22.2388 34.0156L22.4901 41.4359Z"/>
    <path d="M18.9088 40.87L17.7778 40.4927L18.9088 34.393L19.7255 34.3301L18.9088 40.87Z"/>
    <path d="M15.579 39.5494L14.5737 38.9835L16.2701 34.3301L17.1497 34.393L15.579 39.5494Z"/>
    <path d="M12.6262 37.7257L11.7466 37.034L13.6315 33.7012L14.5111 34.0156L12.6262 37.7257Z"/>
    <path d="M9.98719 35.6508C9.73587 35.3993 9.42173 35.1477 9.17041 34.8962L11.2438 32.3809C11.4951 32.5695 11.7464 32.7582 11.9977 32.8839L9.98719 35.6508Z"/>
    <path d="M7.53666 33.3868L6.78271 32.5693L9.29588 30.4941L9.86134 31.1859L7.53666 33.3868Z"/>
    <path d="M5.40075 30.872L4.77246 29.9916L7.78826 28.168L8.22806 28.9855L5.40075 30.872Z"/>
    <path d="M3.51582 28.1052L3.01318 27.099L6.90859 25.5898L7.1599 26.4702L3.51582 28.1052Z"/>
    <path d="M2.07066 25.0244L1.63086 23.9554L6.59436 22.9492V23.8296L2.07066 25.0244Z"/>
    <path d="M1.00278 21.6916L0.751465 20.5597L6.78306 20.3711L6.6574 21.1886L1.00278 21.6916Z"/>
    <path d="M0.5 18.1694V16.9746L7.34837 17.9179L7.09705 18.7353L0.5 18.1694Z"/>
    <path d="M0.751465 14.5229L1.00278 13.3281L8.22812 15.6548L7.91398 16.4094L0.751465 14.5229Z"/>
    <path d="M1.69385 10.9385C1.81951 10.5612 2.00799 10.1839 2.19648 9.80664L9.29616 13.5796C9.17051 13.8312 9.04485 14.0198 8.91919 14.2714L1.69385 10.9385Z"/>
    <path d="M3.45312 7.66824C3.70444 7.35383 3.89293 6.97653 4.14424 6.66211L10.6156 11.6299C10.49 11.8186 10.3015 12.0701 10.1758 12.2587L3.45312 7.66824Z"/>
    <path d="M5.84033 4.90109C6.15448 4.64955 6.46862 4.39802 6.8456 4.14648L11.9976 9.68023C11.8719 9.93176 11.6834 10.1204 11.5578 10.3719L5.84033 4.90109Z"/>
    <path d="M8.98193 2.9519L10.1757 2.51172L13.4428 7.54239L12.9402 8.23411L8.98193 2.9519Z"/>
    <path d="M12.4375 1.88239L13.5684 1.63086L15.2648 5.52963C15.0135 5.71828 14.825 5.96982 14.5737 6.15847L12.4375 1.88239Z"/>
    <path d="M15.8301 1.25506C16.2071 1.19217 16.584 1.12929 16.8982 1.06641L17.6521 4.14769C17.4008 4.27346 17.0867 4.39923 16.8353 4.525L15.8301 1.25506Z"/>
    <path d="M19.0972 0.750767C19.4741 0.750767 19.8511 0.687883 20.1653 0.625L20.4166 3.64341C20.1024 3.64341 19.7883 3.70629 19.4741 3.70629L19.0972 0.750767Z"/>
    <path d="M22.3646 0.5625H23.4955L23.1814 3.83244C22.8672 3.76956 22.5531 3.76956 22.3018 3.70667L22.3646 0.5625Z"/>
    <path d="M25.6944 0.6875L26.8253 0.813267L25.7572 4.64916L24.9404 4.33474L25.6944 0.6875Z"/>
    <path d="M29.0245 1.25391L30.1554 1.56832L28.0821 5.97016L27.3281 5.4671L29.0245 1.25391Z"/>
    <path d="M32.2917 2.44922L33.3598 2.95229L30.1555 7.60566L29.4644 7.03971L32.2917 2.44922Z"/>
    <path d="M35.3074 4.27344L36.2498 5.02804L31.9146 9.42988L31.3491 8.80104L35.3074 4.27344Z"/>
    <path d="M37.8831 6.72461L38.637 7.60498L33.4222 11.378L32.9824 10.6863L37.8831 6.72461Z"/>
    <path d="M40.0195 9.55469L40.585 10.6237L34.5534 13.5792L34.2393 12.8246L40.0195 9.55469Z"/>
    <path d="M41.5902 12.8242L41.9672 13.9561L35.433 15.9055C35.3701 15.654 35.2445 15.4024 35.1816 15.1509L41.5902 12.8242Z"/>
    <path d="M42.4699 16.2832L42.6584 17.478L35.9357 18.2326L35.8101 17.478L42.4699 16.2832Z"/>
  </g>
</svg>
